<svg width="202" height="227" viewBox="0 0 202 227" fill="none" xmlns="http://www.w3.org/2000/svg">
<path d="M100.604 35V46.7323C111.431 46.7323 122.055 49.4076 131.558 54.4029C101.719 99.904 50.2415 110.166 33.7511 112.333C33.9601 98.5315 38.4328 85.162 46.7999 73.8407C57.3964 59.4958 72.9393 50.1392 90.5723 47.4848C93.8955 46.9831 97.2674 46.7323 100.598 46.7323V35C96.717 35 92.7808 35.2856 88.8306 35.8848C45.9639 42.3292 16.4386 82.3055 22.8829 125.173C28.735 164.09 62.2105 192 100.402 192C104.283 192 108.219 191.707 112.169 191.115C155.036 184.671 184.561 144.694 178.117 101.827C172.265 62.9165 138.796 35 100.604 35ZM34.6011 124.093C52.3664 122.003 108.303 111.511 141.423 60.7568C142.252 61.3977 143.067 62.0596 143.868 62.7424C150.152 68.1069 155.322 74.5583 159.195 81.7203C123.797 144.541 55.7941 150.17 45.0373 150.665C39.7147 142.723 36.1338 133.673 34.5941 124.093H34.6011ZM110.428 179.522C107.105 180.024 103.733 180.275 100.402 180.275C84.5948 180.275 69.226 174.59 57.1317 164.258C56.1772 163.443 55.2506 162.593 54.345 161.722C77.21 159.172 131.001 147.614 164.72 95.2919C165.486 98.002 166.092 100.761 166.517 103.576C171.993 139.978 146.829 174.046 110.428 179.522Z" fill="black"/>
</svg>
