<svg width="649" height="227" viewBox="0 0 649 227" fill="none" xmlns="http://www.w3.org/2000/svg">
<path d="M103.604 35V46.7323C114.431 46.7323 125.055 49.4076 134.558 54.4029C104.719 99.904 53.2415 110.166 36.7511 112.333C36.9601 98.5315 41.4328 85.162 49.7999 73.8407C60.3964 59.4958 75.9393 50.1392 93.5723 47.4848C96.8955 46.9831 100.267 46.7323 103.598 46.7323V35C99.717 35 95.7808 35.2856 91.8306 35.8848C48.9639 42.3292 19.4386 82.3055 25.8829 125.173C31.735 164.09 65.2105 192 103.402 192C107.283 192 111.219 191.707 115.169 191.115C158.036 184.671 187.561 144.694 181.117 101.827C175.265 62.9165 141.796 35 103.604 35ZM37.6011 124.093C55.3664 122.003 111.303 111.511 144.423 60.7568C145.252 61.3977 146.067 62.0596 146.868 62.7424C153.152 68.1069 158.322 74.5583 162.195 81.7203C126.797 144.541 58.7941 150.17 48.0373 150.665C42.7147 142.723 39.1338 133.673 37.5941 124.093H37.6011ZM113.428 179.522C110.105 180.024 106.733 180.275 103.402 180.275C87.5948 180.275 72.226 174.59 60.1317 164.258C59.1772 163.443 58.2506 162.593 57.345 161.722C80.21 159.172 134.001 147.614 167.72 95.2919C168.486 98.002 169.092 100.761 169.517 103.576C174.993 139.978 149.829 174.046 113.428 179.522Z" fill="white"/>
<path d="M222.791 150.684V76.1016H276.113V86.9025H234.818V107.717H274.449V118.63H234.818V139.89H276.113V150.684H222.791Z" fill="white"/>
<path d="M284.686 131.986V131.763H296.26V133.769C296.26 139.779 298.934 142.007 309.505 142.007C318.412 142.007 320.083 140.001 320.083 135.886C320.083 131.436 317.409 130.099 309.282 128.65L300.71 127.202C290.8 125.419 284.567 120.969 284.567 110.948C284.567 100.927 292.806 94.249 307.276 94.249C320.299 94.249 330.097 100.704 330.097 113.281V114.284H318.634V112.947C318.634 107.828 316.852 104.152 306.949 104.152C298.154 104.152 296.037 106.491 296.037 110.718C296.037 114.946 298.042 116.171 305.835 117.731L315.187 119.514C325.877 121.631 331.441 126.415 331.441 135.545C331.441 145.788 323.314 151.798 309.289 151.798C293.147 151.798 284.686 145.454 284.686 131.986Z" fill="white"/>
<path d="M340.35 169.946V95.3632H351.262V104.493H351.819C354.382 98.0373 360.726 94.249 370.301 94.249C385.886 94.249 394.459 105.496 394.459 123.079C394.459 140.663 386.109 151.798 371.081 151.798C361.171 151.798 355.05 147.237 352.599 142.111H352.265V169.939H340.357L340.35 169.946ZM367.397 141.561C377.975 141.561 382.425 136.666 382.425 123.079C382.425 109.493 378.087 104.486 367.397 104.486C357.599 104.486 352.258 108.824 352.258 118.065V127.975C352.258 137.216 357.599 141.554 367.397 141.554V141.561Z" fill="white"/>
<path d="M404.021 150.684V76.1016H416.04V104.598H416.486C419.048 99.5906 424.947 94.2424 434.968 94.2424C449.439 94.2424 455.56 103.706 455.56 115.837V150.677H443.54V118.616C443.54 108.706 440.42 104.591 430.295 104.591C420.17 104.591 416.047 108.372 416.047 118.839V150.677H404.027L404.021 150.684Z" fill="white"/>
<path d="M464.91 122.968C464.91 105.823 475.154 94.249 491.624 94.249C506.54 94.249 517.007 103.156 517.007 118.295C517.007 121.192 516.672 124.194 516.338 125.865H476.15C476.596 135.997 480.273 141.116 491.846 141.116C501.087 141.116 504.646 137.996 504.646 132.989V132.097H516.554V133.1C516.554 144.451 506.645 151.798 491.728 151.798C473.476 151.798 464.903 140.224 464.903 122.968H464.91ZM476.268 117.849H505.544C505.99 108.386 500.872 104.381 491.408 104.381C480.941 104.381 476.937 109.277 476.268 117.849Z" fill="white"/>
<path d="M526.581 150.684V95.029H537.605V103.824H538.162C540.39 98.7059 545.509 94.249 553.636 94.249C565.209 94.249 569.666 102.71 569.666 113.058V116.735H557.647V114.507C557.647 107.16 555.53 104.486 548.517 104.486C541.505 104.486 538.608 107.271 538.608 114.618V150.684H526.588H526.581Z" fill="white"/>
<path d="M573.56 136.993C573.56 127.864 580.238 123.079 592.042 121.408L611.408 118.511V115.503C611.408 107.265 607.627 104.813 598.943 104.813C590.259 104.813 586.7 107.599 586.7 114.946V116.617H575.126V115.503C575.126 103.149 584.813 94.2422 599.618 94.2422C614.423 94.2422 622.884 103.595 622.884 117.063V150.677H611.749V141.993H611.192C607.961 147.223 601.617 151.791 591.157 151.791C581.248 151.791 573.567 146.673 573.567 136.986L573.56 136.993ZM595.043 142.223C602.836 142.223 611.408 139.103 611.408 127.975V126.972L593.817 129.646C587.473 130.538 585.245 131.986 585.245 136.102C585.245 140.44 588.03 142.223 595.043 142.223Z" fill="white"/>
</svg>
